# Blender 3.3.1
# www.blender.org
mtllib poleFlaghull.mtl
o polymsh1
v 0.011975 0.974225 0.000000
v 0.011975 1.432190 0.000000
v 0.022850 0.995042 -0.006978
v 0.011975 0.974225 0.000000
v 0.024535 1.469837 0.007092
v 0.015297 1.469837 0.026274
v -0.005460 1.469837 0.031012
v -0.022105 1.469837 0.017738
v -0.022105 1.469837 -0.003553
v -0.005460 1.469837 -0.016828
v 0.015297 1.469837 -0.012090
v 0.018093 1.446158 0.007092
v 0.011281 1.446158 0.021238
v -0.004026 1.446158 0.024732
v -0.016301 1.446158 0.014942
v -0.016301 1.446158 -0.000758
v -0.004026 1.446158 -0.010547
v 0.011281 1.446158 -0.007053
v 0.018093 0.984724 0.007092
v 0.011281 0.984724 0.021238
v -0.004026 0.984724 0.024732
v -0.016301 0.984724 0.014942
v -0.016301 0.984724 -0.000758
v -0.004026 0.984724 -0.010547
v 0.011281 0.984724 -0.007053
v 0.011281 0.963750 0.021238
v -0.004026 0.963750 0.024732
v -0.016301 0.963750 0.014942
v -0.016301 0.963750 -0.000758
v -0.004026 0.963750 -0.010547
v 0.011281 0.963750 -0.007053
v -0.004026 0.229651 0.024732
v -0.016301 0.229651 0.014942
v -0.016301 0.229651 -0.000758
v -0.004026 0.229651 -0.010547
v 0.011281 0.229651 -0.007054
v 0.018093 0.208677 0.007092
v 0.011281 0.208677 0.021238
v -0.004026 0.208677 0.024732
v -0.016301 0.208677 0.014942
v -0.016301 0.208677 -0.000758
v -0.004026 0.208677 -0.010547
v 0.011281 0.208677 -0.007054
v 0.018093 -0.252757 0.007092
v 0.011281 -0.252757 0.021238
v -0.004026 -0.252757 0.024731
v -0.016301 -0.252757 0.014942
v -0.016301 -0.252757 -0.000758
v -0.004026 -0.252757 -0.010547
v 0.011281 -0.252757 -0.007054
v 0.024535 -0.276436 0.007092
v 0.015297 -0.276436 0.026274
v -0.005460 -0.276436 0.031012
v -0.022105 -0.276436 0.017737
v -0.022105 -0.276436 -0.003553
v -0.005460 -0.276436 -0.016828
v 0.015297 -0.276436 -0.012090
v -0.023708 0.982163 0.018509
v -0.023708 0.982163 -0.004325
v -0.005855 0.982163 -0.018562
v 0.016406 0.966311 0.027665
v -0.005855 0.966311 -0.018562
v -0.023708 0.966311 -0.004325
v -0.023708 0.966311 0.018509
v -0.005855 0.966311 0.032746
v -0.023708 0.227090 0.018509
v -0.023708 0.227090 -0.004325
v -0.005855 0.227090 -0.018562
v 0.016406 0.211238 0.027665
v 0.026314 0.211238 0.007092
v 0.016406 0.211238 -0.013481
v -0.005855 0.211238 -0.018562
v -0.023708 0.211238 -0.004325
v -0.023708 0.211238 0.018509
v -0.005855 0.211238 0.032746
v 0.016406 1.448719 0.027665
v 0.026314 1.448719 0.007092
v 0.016406 1.448719 -0.013481
v -0.005855 1.448719 -0.018562
v -0.023708 1.448719 -0.004325
v -0.023708 1.448719 0.018509
v -0.005855 1.448719 0.032746
v 0.026314 -0.255318 0.007092
v 0.016406 -0.255318 0.027665
v -0.005855 -0.255318 0.032746
v -0.023708 -0.255318 0.018509
v -0.023708 -0.255318 -0.004325
v -0.005855 -0.255318 -0.018562
v 0.016406 -0.255318 -0.013481
vn 0.1081 -0.9798 0.1680
vn -0.7073 -0.2983 0.6409
vn -0.2225 -0.0237 0.9746
vn -0.6512 -0.0405 0.7579
vn 0.0479 -0.2866 0.9569
vn 0.7123 -0.0142 0.7017
vn 0.9154 -0.0381 -0.4008
vn 0.8841 -0.0381 -0.4658
vn 0.9010 -0.0024 -0.4339
vn 0.7094 0.0507 -0.7030
vn 0.7090 0.0507 -0.7033
vn 0.7103 -0.0000 -0.7039
vn 0.3752 0.8774 0.2992
vn 0.1763 0.3169 0.9319
vn 0.5744 0.5213 0.6311
vn -0.0000 0.8673 0.4977
vn -0.9010 -0.0047 -0.4339
vn -0.9153 -0.0403 -0.4007
vn -0.7767 -0.5018 -0.3807
vn -0.2384 0.0036 -0.9712
vn 0.0128 -0.4068 -0.9134
vn 0.2008 0.0222 -0.9794
vn 0.2575 -0.0356 -0.9656
vn 0.1874 -0.0359 -0.9816
vn 0.2225 -0.0000 -0.9749
vn 0.2227 -0.0507 -0.9736
vn 0.2234 0.0507 -0.9734
vn -0.1517 0.0028 -0.9884
vn 0.4759 -0.6539 0.5882
vn 0.1991 -0.9773 -0.0731
vn 0.9997 0.0236 -0.0000
vn 0.6232 0.0323 0.7814
vn 0.6233 0.0236 0.7816
vn 0.9009 0.0066 -0.4339
vn 0.8839 0.0421 -0.4658
vn 0.9154 0.0419 -0.4004
vn -0.6785 -0.0000 -0.7346
vn -0.5719 -0.4972 -0.6524
vn 0.6233 -0.0236 -0.7816
vn 0.9927 -0.0143 0.1195
vn 0.9696 0.0507 -0.2393
vn 0.9710 -0.0000 -0.2391
vn 0.9699 0.0507 -0.2380
vn -0.9947 0.0921 0.0452
vn -0.7664 0.4218 -0.4845
vn -0.9163 -0.0177 -0.4002
vn -0.8842 -0.0177 -0.4668
vn -0.8690 -0.4944 0.0225
vn -1.0000 0.0033 -0.0000
vn -0.8773 0.0029 -0.4798
vn -0.8655 -0.4977 -0.0565
vn -0.9961 0.0507 -0.0724
vn -0.9974 -0.0000 -0.0725
vn -0.3860 0.9202 0.0647
vn 0.1866 0.0406 0.9816
vn -0.9284 0.0656 0.3658
vn -0.9844 0.0920 -0.1502
vn -0.9007 0.0236 0.4337
vn -0.5941 0.0404 0.8034
vn -0.4749 0.0917 -0.8752
vn -0.9007 0.0236 -0.4337
vn 0.0418 -0.3323 -0.9422
vn -0.2225 0.0236 -0.9746
vn 0.6233 0.0236 -0.7816
vn 0.7217 0.0304 -0.6915
vn 0.2678 0.0567 -0.9618
vn 1.0000 -0.0000 -0.0000
vn 0.6235 -0.0000 0.7818
vn -0.2225 -0.0000 0.9749
vn -0.9010 -0.0000 0.4339
vn -0.9010 -0.0000 -0.4339
vn -0.2225 -0.0000 -0.9749
vn 0.6235 -0.0000 -0.7818
vn -1.0000 -0.0000 -0.0000
vn -0.2225 0.0002 -0.9749
vn -0.6235 -0.0000 0.7818
vn -0.6507 -0.0359 0.7585
vn -0.5944 -0.0355 0.8034
vn -0.6222 -0.0507 0.7812
vn -0.6216 0.0507 0.7817
vn -0.2905 -0.2650 0.9195
vn -0.6070 0.0294 0.7942
vn 0.2225 -0.0000 0.9749
vn -0.6152 -0.0000 0.7883
vn -0.6235 -0.0000 -0.7818
vn -0.9985 -0.0404 0.0365
vn -0.9007 -0.0236 -0.4337
vn -0.9667 0.2110 -0.1444
vn -0.5941 -0.0404 -0.8034
vn -0.9339 -0.2031 -0.2941
vn 0.1866 -0.0406 -0.9816
vn 0.5222 -0.2576 -0.8130
vn -0.9010 -0.0000 0.4338
vn -0.9010 -0.0000 -0.4338
vn 0.9010 -0.0000 0.4339
vn 0.8842 0.0359 0.4657
vn -0.5947 -0.4769 0.6472
vn -0.6761 0.0034 0.7368
vn -0.6405 0.0221 0.7677
vn 0.6235 -0.0000 -0.7819
vn -0.2224 -0.0000 -0.9750
vn -0.2224 -0.0000 -0.9749
vn -0.2224 -0.0000 0.9749
vn 0.6234 -0.0000 0.7819
vn -0.9010 0.0001 -0.4339
vn -0.9010 0.0001 -0.4338
vn 1.0000 -0.0000 0.0001
vn 1.0000 -0.0000 -0.0001
vn 1.0000 0.0001 -0.0000
vn 0.6234 -0.0000 -0.7819
vn -0.2226 -0.0000 -0.9749
vn -0.2224 -0.0000 0.9750
vn -0.2224 0.0236 -0.9747
vn -0.2225 0.0235 -0.9747
vn -0.9008 0.0236 -0.4336
vn -0.2224 0.0235 -0.9747
vn -0.9007 0.0236 0.4338
vn -0.9007 0.0236 -0.4338
vn -0.2225 0.0236 0.9747
vn -0.2224 0.0236 0.9747
vn 0.6233 0.0237 0.7816
vn -0.2224 0.0235 0.9747
vn -0.9007 -0.0236 -0.4338
vn -0.9007 -0.0236 0.4338
vn -0.2225 -0.0236 -0.9747
vn -0.2224 -0.0236 -0.9747
vn 0.1873 0.0359 0.9816
vn 0.1873 -0.0359 0.9816
vn 0.2572 -0.0359 0.9657
vt 0.000000 0.000000
vt 0.396714 0.314127
vt 0.189130 0.314090
vt 0.408270 0.227552
vt 0.367725 0.317347
vt 0.337965 0.319948
vt 0.459953 0.245290
vt 0.307957 0.321182
vt 0.277895 0.321180
vt 0.247880 0.319936
vt 0.445233 0.204017
vt 0.218118 0.317322
vt 0.421085 0.206885
vt 0.306429 0.969142
vt 0.196797 0.969142
vt 0.381840 0.262711
vt 0.204036 0.262679
vt 0.290765 0.969142
vt 0.359043 0.266916
vt 0.275103 0.969142
vt 0.332941 0.268791
vt 0.259443 0.969142
vt 0.306290 0.269778
vt 0.243784 0.969142
vt 0.279577 0.269775
vt 0.228123 0.969142
vt 0.252929 0.268779
vt 0.212461 0.969142
vt 0.226830 0.266894
vt 0.306429 0.369616
vt 0.196797 0.369616
vt 0.290766 0.369616
vt 0.275103 0.369616
vt 0.328102 0.238292
vt 0.259443 0.369616
vt 0.302282 0.238432
vt 0.243784 0.369616
vt 0.276407 0.238432
vt 0.228123 0.369616
vt 0.250586 0.238292
vt 0.212461 0.369616
vt 0.133100 0.973541
vt 0.353299 0.191918
vt 0.117437 0.973541
vt 0.328103 0.191614
vt 0.101777 0.973541
vt 0.302282 0.191474
vt 0.086117 0.973541
vt 0.276407 0.191474
vt 0.070457 0.973541
vt 0.250586 0.191614
vt 0.054795 0.973541
vt 0.225390 0.191918
vt 0.117437 0.019749
vt 0.101776 0.019749
vt 0.302274 0.167585
vt 0.086117 0.019749
vt 0.276398 0.167585
vt 0.070457 0.019749
vt 0.250577 0.167444
vt 0.054795 0.019749
vt 0.457205 0.965760
vt 0.347567 0.965760
vt 0.375378 0.119367
vt 0.203294 0.119367
vt 0.441541 0.965760
vt 0.353289 0.121070
vt 0.425877 0.965760
vt 0.328093 0.120767
vt 0.410215 0.965760
vt 0.302274 0.120628
vt 0.394554 0.965760
vt 0.276399 0.120628
vt 0.378893 0.965760
vt 0.250579 0.120767
vt 0.363231 0.965760
vt 0.225383 0.121070
vt 0.457205 0.366234
vt 0.347567 0.366234
vt 0.441541 0.366234
vt 0.425877 0.366234
vt 0.410215 0.366234
vt 0.299064 0.089964
vt 0.394554 0.366234
vt 0.273640 0.089975
vt 0.378893 0.366234
vt 0.248285 0.090900
vt 0.363231 0.366234
vt 0.187739 0.047734
vt 0.384878 0.047592
vt 0.357319 0.044613
vt 0.407800 0.079644
vt 0.329054 0.042222
vt 0.430801 0.071750
vt 0.300584 0.041104
vt 0.451315 0.084811
vt 0.272062 0.041112
vt 0.453893 0.108992
vt 0.243566 0.042271
vt 0.436595 0.126085
vt 0.215293 0.044710
vt 0.412446 0.123218
vt 0.302264 0.229718
vt 0.000000 0.000000
vt 0.276424 0.229718
vt 0.000000 0.000000
vt 0.250556 0.229644
vt 0.354312 0.200508
vt 0.250556 0.200262
vt 0.276424 0.200188
vt 0.302265 0.200188
vt 0.328133 0.200262
vt 0.302256 0.158872
vt 0.276416 0.158872
vt 0.250548 0.158796
vt 0.354304 0.129660
vt 0.381859 0.128469
vt 0.196813 0.128468
vt 0.224368 0.129660
vt 0.250548 0.129414
vt 0.276416 0.129342
vt 0.302256 0.129342
vt 0.328124 0.129415
vt 0.361385 0.275978
vt 0.000000 0.000000
vt 0.000000 0.000000
vt 0.390111 0.271571
vt 0.195759 0.271536
vt 0.224483 0.275955
vt 0.251970 0.278114
vt 0.279273 0.279191
vt 0.306589 0.279193
vt 0.333894 0.278125
vt 0.193935 0.088189
vt 0.378781 0.088055
vt 0.351453 0.083948
vt 0.325304 0.081983
vt 0.299331 0.081017
vt 0.273352 0.081025
vt 0.000000 0.000000
vt 0.247390 0.082027
vt 0.221251 0.084038
s 1
usemtl Material.001
f 54/95/1 53/93/2 85/137/3 86/138/4
f 52/91/5 84/136/6 85/137/3 53/93/2
s 0
f 83/134/7 89/142/8 3/1/9
f 89/142/10 78/129/11 3/1/12
s 1
f 8/7/13 7/6/14 5/4/15 9/9/16
s 0
f 88/140/17 86/138/18 9/9/19
s 1
f 60/106/20 10/10/21 78/129/22
s 0
f 89/142/23 88/141/24 60/106/25
f 89/142/26 60/106/25 78/129/27
s 1
f 10/10/21 60/106/20 9/9/28
f 51/89/29 52/91/5 54/96/1 57/102/30
f 77/127/31 5/2/15 6/5/32 76/124/33
f 5/4/15 7/6/14 6/5/32
s 0
f 3/1/34 78/129/35 77/128/36
f 60/106/37 88/140/37 9/9/38
s 1
f 57/101/30 89/142/39 83/135/40 51/89/29
s 0
f 83/135/41 3/1/42 77/128/43
s 1
f 56/100/44 54/96/45 86/138/46 88/141/47
f 9/9/48 58/104/49 8/8/50
s 0
f 9/9/51 86/138/52 58/104/53
s 1
f 5/4/15 10/11/54 9/9/16
f 6/5/32 7/6/14 82/133/55
f 82/133/55 76/124/33 6/5/32
f 7/6/56 8/8/57 81/132/58
f 81/132/58 82/133/59 7/6/56
f 8/8/57 9/9/60 80/131/61
f 80/131/61 81/132/58 8/8/57
f 9/9/60 10/10/62 79/130/63
f 79/130/63 80/131/61 9/9/60
f 10/10/54 11/12/64 78/129/65
f 78/129/66 79/130/63 10/10/62
f 11/12/64 5/3/15 77/128/31
f 77/128/31 78/129/65 11/12/64
f 12/14/67 13/18/68 20/32/68
f 20/32/68 19/30/67 12/14/67
f 13/18/68 14/20/69 21/33/69
f 21/33/69 20/32/68 13/18/68
f 14/20/69 15/22/70 22/35/70
f 22/35/70 21/33/69 14/20/69
f 15/22/70 16/24/71 23/37/71
f 23/37/71 22/35/70 15/22/70
f 16/24/71 17/26/72 24/39/72
f 24/39/72 23/37/71 16/24/71
f 17/26/72 18/28/73 25/41/73
f 25/41/73 24/39/72 17/26/72
f 18/28/73 12/15/67 19/31/67
f 19/31/67 25/41/73 18/28/73
f 58/103/74 59/105/71 63/110/71
f 63/110/71 64/111/74 58/103/74
f 59/105/71 60/107/72 62/109/75
f 62/109/75 63/110/71 59/105/71
s 0
f 58/104/76 86/138/77 85/137/78
f 58/104/76 85/137/79 82/133/80
s 1
f 7/6/56 8/8/81 82/133/82
f 26/42/83 27/44/69 32/54/84
f 27/44/69 28/46/70 33/55/70
f 33/55/70 32/54/84 27/44/69
f 28/46/70 29/48/71 34/57/71
f 34/57/71 33/55/70 28/46/70
f 29/48/71 30/50/72 35/59/72
f 35/59/72 34/57/71 29/48/71
f 30/50/72 31/52/25 36/61/25
f 36/61/25 35/59/72 30/50/72
f 66/113/74 67/114/71 73/121/71
f 73/121/71 74/122/74 66/113/74
f 67/114/71 68/115/85 72/120/85
f 72/120/85 73/121/71 67/114/71
f 37/62/67 38/66/68 45/80/68
f 45/80/68 44/78/67 37/62/67
f 38/66/68 39/68/69 46/81/69
f 46/81/69 45/80/68 38/66/68
f 39/68/69 40/70/70 47/82/70
f 47/82/70 46/81/69 39/68/69
f 40/70/70 41/72/71 48/84/71
f 48/84/71 47/82/70 40/70/70
f 41/72/71 42/74/72 49/86/72
f 49/86/72 48/84/71 41/72/71
f 42/74/72 43/76/73 50/88/73
f 50/88/73 49/86/72 42/74/72
f 43/76/73 37/63/67 44/79/67
f 44/79/67 50/88/73 43/76/73
f 83/135/40 84/136/6 52/91/5
f 52/91/5 51/90/29 83/135/40
f 86/138/86 87/139/87 55/97/87
f 55/97/87 54/95/88 86/138/86
f 87/139/87 88/141/89 56/99/90
f 56/99/90 55/97/87 87/139/87
f 88/141/91 89/142/39 57/101/30
f 57/101/30 56/99/92 88/141/91
f 11/13/64 10/11/54 5/4/15
f 52/92/5 53/94/2 54/96/1
f 54/96/88 55/98/87 56/100/90
f 54/96/1 56/100/92 57/102/30
s 0
f 21/34/69 22/36/93 58/103/93
f 22/36/93 23/38/94 59/105/71
f 59/105/71 58/103/70 22/36/93
f 23/38/94 24/40/72 60/107/72
f 60/107/72 59/105/71 23/38/94
s 1
f 77/126/95 76/124/96 84/136/6 83/135/40
s 0
f 8/8/97 58/104/98 82/133/99
f 31/53/100 30/51/72 62/109/72
f 30/51/101 29/49/94 63/110/94
f 63/110/71 62/109/72 30/51/102
f 29/49/94 28/47/93 64/111/70
f 64/111/70 63/110/71 29/49/94
f 28/47/93 27/45/69 65/112/69
f 65/112/69 64/111/70 28/47/93
f 27/45/103 26/43/104 61/108/104
f 61/108/68 65/112/69 27/45/69
f 33/56/93 34/58/94 67/114/105
f 67/114/71 66/113/70 33/56/93
f 34/58/106 35/60/72 68/115/72
f 68/115/72 67/114/71 34/58/94
f 38/67/104 37/64/107 70/117/108
f 70/117/109 69/116/68 38/67/104
f 37/65/108 43/77/110 71/119/110
f 71/119/73 70/118/67 37/65/107
f 43/77/110 42/75/102 72/120/111
f 72/120/72 71/119/100 43/77/73
f 42/75/101 41/73/94 73/121/94
f 73/121/71 72/120/72 42/75/102
f 41/73/94 40/71/93 74/122/70
f 74/122/70 73/121/71 41/73/94
f 40/71/93 39/69/69 75/123/69
f 75/123/69 74/122/70 40/71/93
f 39/69/112 38/67/104 69/116/104
f 69/116/68 75/123/69 39/69/69
f 13/19/104 12/16/107 77/127/31
f 77/127/31 76/124/33 13/19/104
f 12/17/107 18/29/100 78/129/64
f 78/129/64 77/128/31 12/17/107
f 18/29/100 17/27/72 79/130/113
f 79/130/114 78/129/64 18/29/100
f 17/27/101 16/25/94 80/131/115
f 80/131/61 79/130/116 17/27/102
f 16/25/94 15/23/93 81/132/58
f 81/132/117 80/131/118 16/25/94
f 15/23/93 14/21/69 82/133/119
f 82/133/120 81/132/117 15/23/93
f 14/21/103 13/19/104 76/124/121
f 76/124/33 82/133/122 14/21/69
f 47/83/93 48/85/94 87/139/87
f 87/139/123 86/138/124 47/83/93
f 48/85/94 49/87/72 88/141/125
f 88/141/126 87/139/123 48/85/94
f 76/125/83 82/133/127 85/137/128 84/136/129
l 1 3
