# Blender 3.6.1
# www.blender.org
mtllib Bastardhull.mtl
o Bastard
v 0.010850 0.207114 -0.011999
v 0.007594 0.184964 0.011457
v 0.009656 0.184970 -0.012109
v 0.008789 0.207108 0.011567
v 0.032498 0.796251 0.006139
v 0.044087 0.777660 0.007148
v 0.033160 0.796253 -0.001425
v 0.044749 0.777662 -0.000416
v 0.051390 0.751752 0.003969
v 0.017803 0.806998 0.001046
v 0.040248 0.998628 0.003061
v 0.050559 0.772573 0.003902
v -0.014747 -0.138686 0.002403
v -0.004417 -0.138654 0.005860
v 0.006135 -0.138621 0.006783
v 0.016909 -0.138588 0.005173
v -0.013946 -0.138683 -0.006753
v -0.003173 -0.138650 -0.008363
v 0.007380 -0.138617 -0.007440
v 0.017710 -0.138586 -0.003983
v 0.018334 -0.138250 0.000684
v -0.015371 -0.138242 -0.002265
v -0.053270 0.087223 -0.002188
v -0.053236 0.076328 -0.002188
v 0.058614 0.081238 0.006454
v -0.052709 0.087224 -0.008597
v -0.052675 0.076329 -0.008597
v 0.058976 0.081239 0.002318
vn 0.2071 0.0183 0.9781
vn 0.9853 0.0152 0.1703
vn 0.5660 -0.2940 0.7702
vn 0.3747 0.0194 -0.9270
vn -0.8139 0.3120 0.4900
vn -0.4334 0.0475 -0.8999
vn -0.8887 -0.4432 -0.1175
vn -0.9506 0.1987 -0.2387
vn 0.9688 -0.1943 0.1541
vn 0.6036 -0.2427 0.7594
vn 0.9504 -0.0257 0.3101
vn 0.9910 0.0383 0.1282
vn -0.3509 -0.6282 -0.6944
vn -0.9323 -0.1444 -0.3316
vn -0.9575 -0.2863 0.0342
vn -0.0659 -0.0679 -0.9955
vn -0.0388 -0.0100 -0.9992
vn -0.0394 0.2699 -0.9621
vn -0.1496 -0.5451 -0.8249
vn 0.2237 -0.4344 -0.8725
vn 0.0872 -0.0150 -0.9961
vn -0.2821 -0.9306 0.2332
vn 0.0031 -1.0000 -0.0000
vn 0.4000 -0.9146 0.0593
vn 0.3044 -0.9149 0.2652
vn -0.5763 0.1529 0.8028
vn -0.5873 -0.6508 0.4811
vn -0.1951 0.3771 0.9054
vn -0.2028 -0.0094 0.9792
vn 0.1470 -0.2213 0.9641
vn 0.1966 -0.0568 0.9788
vn 0.0936 -0.4484 0.8889
vn -0.4671 -0.3737 0.8013
vn -0.2513 0.0190 0.9677
vn -0.1334 0.2359 0.9626
vn -0.0923 -0.0400 0.9949
vn 0.0141 0.0813 0.9966
vn -0.9897 0.1167 -0.0830
vn 0.0770 -0.0469 -0.9959
vn -0.1049 -0.0880 -0.9906
vn -0.0937 0.0214 -0.9954
vn -0.0241 0.3498 -0.9365
vn 0.1765 -0.2285 -0.9574
vn 0.2626 -0.0094 -0.9649
vn 0.2501 -0.0157 -0.9681
vn 0.2935 0.2622 -0.9193
vn 0.5660 -0.3603 0.7415
vn -0.1205 0.1101 0.9866
vn 0.0679 -0.0147 0.9976
vn 0.1319 0.3596 0.9237
vn -0.0871 -0.0140 0.9961
vn 0.0790 -0.0092 0.9968
vn -0.0410 0.4744 0.8794
vn 0.1051 0.0012 0.9945
vn 0.1602 0.4603 0.8732
vn 0.1086 0.0137 -0.9940
vn 0.2904 0.0022 -0.9569
vn 0.3148 0.2353 -0.9195
vt 0.760889 0.031829
vt 0.733851 0.021327
vt 0.756897 0.024345
vt 0.751387 0.117503
vt 0.729440 0.121521
vt 0.755897 0.109658
vt 0.960265 0.239189
vt 0.959527 0.228642
vt 0.977390 0.227392
vt 0.978127 0.237940
vt 0.000000 0.000000
vt 0.348811 0.176773
vt 0.343841 0.175876
vt 0.336077 0.193996
vt 0.338785 0.202649
vt 0.343732 0.203468
vt 0.955586 0.222801
vt 0.955206 0.204657
vt 0.336128 0.185354
vt 0.338890 0.176724
vt 0.348711 0.202525
vt 0.351286 0.193783
vt 0.957815 0.245649
vt 0.959155 0.263556
vt 0.958776 0.141646
vt 0.954983 0.112816
vt 0.778243 0.043454
vt 0.982045 0.057886
vt 0.785527 0.060718
vt 0.990620 0.087766
vt 0.774742 0.096404
vt 0.938618 0.179163
vt 0.936456 0.150164
vt 0.351451 0.185418
vt 0.773653 0.282262
vt 0.773692 0.289085
s 1
f 6/1/1 9/2/2 12/3/3
f 12/4/3 9/5/2 8/6/4
f 23/7/5 26/8/6 27/9/7
f 27/9/7 24/10/8 23/7/5
f 25/11/9 16/12/10 21/13/11 28/11/12
f 18/14/13 17/15/14 27/11/7
f 17/15/14 22/16/15 27/11/7
f 26/17/6 3/11/16 27/18/7
s 0
f 3/11/17 18/14/18 27/11/17
s 1
f 19/19/19 20/20/20 18/14/13
f 20/20/20 17/15/14 18/14/13
f 3/11/21 19/19/19 18/14/13
s 0
f 20/20/22 15/11/23 17/15/24
f 15/11/23 13/11/23 17/15/25
s 1
f 13/21/26 22/16/15 17/15/14
f 13/21/26 14/22/27 24/10/8
s 0
f 14/22/28 2/11/29 24/10/30
s 1
f 2/11/31 23/23/5 24/24/8
f 2/25/31 4/26/32 23/23/5
s 0
f 4/26/33 5/11/34 23/23/35
s 1
f 5/27/36 11/28/37 23/23/5
f 11/28/37 10/29/38 23/23/5
f 10/29/38 26/8/6 23/7/5
f 10/29/38 11/28/37 26/8/6
f 11/30/37 7/31/39 26/8/6
s 0
f 7/31/40 1/11/41 26/8/42
s 1
f 1/32/43 3/33/16 26/17/6
f 1/32/43 28/11/44 3/33/16
s 0
f 28/11/45 19/19/46 3/11/45
s 1
f 28/11/12 20/20/20 19/19/19
f 21/13/11 16/12/10 20/20/20
f 16/12/10 15/34/47 20/20/20
f 28/11/12 21/13/11 20/20/20
f 14/22/27 13/21/26 15/11/48
f 16/12/10 25/11/9 15/34/47
s 0
f 25/11/49 2/11/49 15/34/50
s 1
f 2/11/51 14/22/27 15/34/48
f 25/11/52 4/26/32 2/25/31
f 6/1/1 5/27/36 4/26/53
s 0
f 25/11/54 6/1/54 4/26/55
s 1
f 6/1/1 11/28/37 5/27/36
f 6/1/1 12/3/3 11/28/37
f 12/4/3 8/6/4 11/28/37
f 8/6/4 7/31/39 11/30/37
f 8/6/4 1/11/56 7/31/39
s 0
f 8/6/57 28/11/57 1/32/58
s 1
f 13/21/26 24/10/8 27/9/7 22/16/15
f 8/6/4 9/5/2 28/11/12
f 9/5/2 25/35/9 28/36/12
f 9/2/2 6/1/1 25/11/9
